<svg xmlns="http://www.w3.org/2000/svg" fill="none" viewBox="0 0 24 24" id="Handshake--Streamline-Rounded-Material" height="24" width="24">
  <desc>
    Handshake Streamline Icon: https://streamlinehq.com
  </desc>
  <path fill="#000000" d="M11.87505 20.5004c0.08335 0 0.1792 -0.02085 0.2875 -0.0625 0.10835 -0.0417 0.19585 -0.09585 0.2625 -0.1625l8.425 -8.45c0.2167 -0.2167 0.3792 -0.4625 0.4875 -0.7375 0.10835 -0.275 0.1625 -0.5542 0.1625 -0.8375 0 -0.28335 -0.05415 -0.5667 -0.1625 -0.85 -0.1083 -0.28335 -0.2708 -0.53335 -0.4875 -0.75l-4.5 -4.50001c-0.21665 -0.216665 -0.46665 -0.379165 -0.75 -0.4875 -0.2833 -0.108335 -0.56665 -0.1625 -0.85 -0.1625 -0.2833 0 -0.5625 0.054165 -0.8375 0.1625 -0.275 0.108335 -0.5208 0.270835 -0.7375 0.4875l-0.45 0.45 2.025 2.05001c0.2167 0.2333 0.40835 0.50415 0.575 0.8125 0.1667 0.3083 0.25 0.6458 0.25 1.0125 0 0.6333 -0.2458 1.19165 -0.7375 1.675 -0.49165 0.4833 -1.05415 0.725 -1.6875 0.725 -0.41665 0 -0.7625 -0.0625 -1.0375 -0.1875 -0.275 -0.125 -0.52915 -0.3042 -0.7625 -0.5375l-1.825 -1.825 -4.525 4.525c-0.08332 0.0833 -0.14165 0.1708 -0.174985 0.2625 -0.033335 0.09165 -0.05 0.1875 -0.05 0.2875 0 0.21665 0.070835 0.3958 0.2125 0.5375 0.141685 0.14165 0.320835 0.2125 0.537485 0.2125 0.1 0 0.19585 -0.025 0.2875 -0.075 0.0917 -0.05 0.17085 -0.10835 0.2375 -0.175l2.925 -2.925c0.15 -0.15 0.325 -0.225 0.525 -0.225s0.375 0.075 0.525 0.225c0.15 0.15 0.225 0.325 0.225 0.525s-0.075 0.375 -0.225 0.525l-2.9 2.9c-0.0833 0.0833 -0.14165 0.175 -0.175 0.275 -0.0333 0.1 -0.05 0.2 -0.05 0.3 0 0.2 0.075 0.375 0.225 0.525 0.15 0.15 0.325 0.225 0.525 0.225 0.1 0 0.19585 -0.02085 0.2875 -0.0625 0.0917 -0.0417 0.17085 -0.09585 0.2375 -0.1625l2.925 -2.925c0.15 -0.15 0.325 -0.225 0.525 -0.225s0.375 0.075 0.525 0.225c0.15 0.15 0.225 0.325 0.225 0.525s-0.075 0.375 -0.225 0.525l-2.9 2.9c-0.06665 0.06665 -0.1208 0.15415 -0.1625 0.2625 -0.04165 0.1083 -0.0625 0.2125 -0.0625 0.3125 0 0.2 0.075 0.375 0.225 0.525 0.15 0.15 0.325 0.225 0.525 0.225 0.1 0 0.1917 -0.0167 0.275 -0.05 0.08335 -0.03335 0.1667 -0.0917 0.25 -0.175l2.925 -2.925c0.15 -0.15 0.325 -0.225 0.525 -0.225s0.375 0.075 0.525 0.225c0.15 0.15 0.225 0.325 0.225 0.525s-0.075 0.375 -0.225 0.525l-2.925 2.925c-0.0833 0.0833 -0.14165 0.175 -0.175 0.275 -0.0333 0.1 -0.05 0.19165 -0.05 0.275 0 0.2333 0.0667 0.41665 0.2 0.55 0.13335 0.1333 0.3167 0.2 0.55 0.2Zm0 1.5c-0.55 0 -1.04165 -0.2042 -1.475 -0.6125 -0.4333 -0.40835 -0.69165 -0.9125 -0.775 -1.5125 -0.56665 -0.08335 -1.04165 -0.3167 -1.425 -0.7 -0.3833 -0.38335 -0.61665 -0.85835 -0.7 -1.425 -0.56665 -0.08335 -1.0375 -0.32085 -1.4125 -0.7125 -0.375 -0.3917 -0.60415 -0.8625 -0.6875 -1.4125 -0.61665 -0.08335 -1.124985 -0.33335 -1.524985 -0.75 -0.4 -0.4167 -0.6 -0.9167 -0.6 -1.5 0 -0.28335 0.054165 -0.5667 0.1625 -0.85 0.108335 -0.28335 0.270835 -0.53335 0.4875 -0.75l4.549985 -4.55c0.28335 -0.28335 0.63335 -0.425 1.05 -0.425 0.4167 0 0.7667 0.14165 1.05 0.425l1.7 1.7c0.13335 0.1333 0.2792 0.2375 0.4375 0.3125 0.15835 0.075 0.3125 0.1125 0.4625 0.1125 0.2167 0 0.42085 -0.09585 0.6125 -0.2875 0.1917 -0.1917 0.2875 -0.39585 0.2875 -0.6125 0 -0.1 -0.02915 -0.2125 -0.0875 -0.3375 -0.0583 -0.125 -0.15415 -0.2542 -0.2875 -0.3875l-3.575 -3.57501c-0.21665 -0.216665 -0.46665 -0.379165 -0.75 -0.4875 -0.2833 -0.108335 -0.56665 -0.1625 -0.85 -0.1625 -0.2833 0 -0.5625 0.054165 -0.8375 0.1625 -0.275 0.108335 -0.5208 0.270835 -0.7375 0.4875L3.150065 7.9504c-0.333335 0.3333 -0.5375 0.7375 -0.6125 1.2125 -0.075 0.475 -0.020835 0.92915 0.1625 1.3625 0.083335 0.1833 0.083335 0.3708 0 0.5625 -0.083335 0.19165 -0.216665 0.32915 -0.4 0.4125 -0.183335 0.0833 -0.375 0.0833 -0.575 0 -0.2 -0.08335 -0.341665 -0.2167 -0.425 -0.4 -0.283335 -0.75 -0.366665 -1.49585 -0.25 -2.2375 0.116665 -0.7417 0.466665 -1.4042 1.05 -1.9875l3.774985 -3.77501c0.3667 -0.366665 0.78335 -0.6375 1.25 -0.8125 0.4667 -0.175 0.9417 -0.2625 1.425 -0.2625 0.48335 0 0.9542 0.0875 1.4125 0.2625 0.45835 0.175 0.87085 0.445835 1.2375 0.8125l0.45 0.45 0.45 -0.45c0.3667 -0.366665 0.78335 -0.6375 1.25 -0.8125 0.4667 -0.175 0.9417 -0.2625 1.425 -0.2625 0.48335 0 0.9542 0.0875 1.4125 0.2625 0.45835 0.175 0.87085 0.445835 1.2375 0.8125l4.475 4.47501c0.3667 0.36665 0.6417 0.7833 0.825 1.25 0.18335 0.46665 0.275 0.94165 0.275 1.425 0 0.4833 -0.09165 0.95415 -0.275 1.4125 -0.1833 0.4583 -0.4583 0.8708 -0.825 1.2375l-8.425 8.425c-0.21665 0.21665 -0.4625 0.3833 -0.7375 0.5 -0.275 0.11665 -0.5625 0.175 -0.8625 0.175Z" stroke-width="0.5"></path>
</svg>